<?xml version="1.0"?><svg fill="#1A1A1A" xmlns="http://www.w3.org/2000/svg"  viewBox="0 0 24 24" width="24px" height="24px">    <path d="M 12 1 C 8.686 1 6 3.686 6 7 C 6 10.323 9.6065625 15.105891 11.226562 17.087891 C 11.627562 17.577891 12.370484 17.577891 12.771484 17.087891 C 14.392484 15.105891 18 10.323 18 7 C 18 3.686 15.314 1 12 1 z M 12 4.8574219 C 13.184 4.8574219 14.142578 5.816 14.142578 7 C 14.142578 8.183 13.183 9.1425781 12 9.1425781 C 10.817 9.1425781 9.8574219 8.184 9.8574219 7 C 9.8574219 5.816 10.816 4.8574219 12 4.8574219 z M 6.9941406 15.564453 C 6.9172363 15.56473 6.8383906 15.574375 6.7597656 15.59375 C 3.9047656 16.29875 2 17.56 2 19 C 2 21.209 6.477 23 12 23 C 17.523 23 22 21.209 22 19 C 22 17.56 20.095234 16.299703 17.240234 15.595703 C 16.611234 15.440703 16 15.926219 16 16.574219 C 16 17.028219 16.302187 17.433969 16.742188 17.542969 C 18.547187 17.990969 19.644219 18.612047 19.949219 18.998047 C 19.434219 19.653047 16.694 20.998047 12 20.998047 C 7.306 20.998047 4.5657813 19.653047 4.0507812 18.998047 C 4.3547813 18.611047 5.4528125 17.990969 7.2578125 17.542969 C 7.6978125 17.434969 8 17.028219 8 16.574219 C 8 16.006344 7.5324707 15.562512 6.9941406 15.564453 z"/></svg>