<svg fill="#1A1A1A" xmlns="http://www.w3.org/2000/svg"  viewBox="0 0 50 50" width="50px" height="50px"><path d="M 6 0 L 6 50 L 44 50 L 44 14.597656 L 29.402344 0 Z M 29 2.398438 L 41.597656 15 L 29 15 Z M 17.316406 24.492188 C 18.523438 24.492188 19.507813 24.714844 20.1875 25.359375 C 20.800781 25.9375 21.109375 26.820313 21.109375 27.808594 C 21.109375 28.960938 20.785156 29.746094 20.257813 30.355469 C 19.578125 31.15625 18.472656 31.546875 17.503906 31.546875 C 17.316406 31.546875 17.164063 31.542969 16.992188 31.527344 L 16.992188 36 L 15.191406 36 L 15.191406 24.714844 C 15.769531 24.578125 16.515625 24.492188 17.316406 24.492188 Z M 24.558594 24.492188 C 25.882813 24.492188 26.835938 24.8125 27.515625 25.441406 C 28.453125 26.277344 29.03125 27.769531 29.03125 30.066406 C 29.03125 32.53125 28.417969 34.078125 27.550781 34.925781 C 26.789063 35.710938 25.664063 36.082031 24.1875 36.082031 C 23.558594 36.082031 22.929688 36.03125 22.519531 35.964844 L 22.519531 24.714844 C 23.046875 24.578125 23.777344 24.492188 24.558594 24.492188 Z M 30.507813 24.542969 L 35.21875 24.542969 L 35.21875 26.125 L 32.328125 26.125 L 32.328125 29.542969 L 35.03125 29.542969 L 35.03125 31.054688 L 32.328125 31.054688 L 32.328125 36 L 30.507813 36 Z M 24.847656 25.953125 C 24.660156 25.953125 24.472656 25.972656 24.320313 26.003906 L 24.320313 34.554688 C 24.472656 34.589844 24.644531 34.589844 24.761719 34.589844 C 26.019531 34.589844 27.15625 33.535156 27.15625 30.050781 C 27.15625 27.449219 26.429688 25.953125 24.847656 25.953125 Z M 17.621094 25.96875 C 17.367188 25.96875 17.144531 26.003906 16.992188 26.054688 L 16.992188 30.03125 C 17.128906 30.066406 17.25 30.066406 17.4375 30.066406 C 18.625 30.066406 19.285156 29.253906 19.285156 27.941406 C 19.285156 26.871094 18.84375 25.96875 17.621094 25.96875 Z"/></svg>