<svg fill="#1A1A1A" xmlns="http://www.w3.org/2000/svg"  viewBox="0 0 50 50" width="100px" height="100px"><path d="M 24.964844 2 A 1.0001 1.0001 0 0 0 24.382812 2.2128906 L 1.3828125 20.212891 A 1.0002305 1.0002305 0 1 0 2.6171875 21.787109 L 4 20.705078 L 4 46 C 4 46.55 4.45 47 5 47 L 20 47 L 20 35 L 12.697266 29.519531 C 12.312266 29.189531 12.067719 28.724703 12.011719 28.220703 L 11.011719 19.220703 C 10.889719 18.122703 11.681297 17.135672 12.779297 17.013672 C 13.868297 16.895672 14.864328 17.680297 14.986328 18.779297 L 16 26 L 20 29 L 32 29 C 35.314 29 38 31.686 38 35 L 38 47 L 45 47 C 45.55 47 46 46.55 46 46 L 46 20.705078 L 47.382812 21.787109 A 1.0002308 1.0002308 0 1 0 48.617188 20.212891 L 25.617188 2.2128906 A 1.0001 1.0001 0 0 0 24.964844 2 z M 27.5 16 C 30.538 16 33 18.462 33 21.5 C 33 24.538 30.537 27 27.5 27 C 24.462 27 22 24.538 22 21.5 C 22 18.462 24.462 16 27.5 16 z M 33.5 37 C 33.224 37 33 37.224 33 37.5 L 33 46.998047 L 34 46.998047 L 34 37.5 C 34 37.224 33.776 37 33.5 37 z"/></svg>