<svg width="63" height="63" viewBox="0 0 63 63" fill="none" xmlns="http://www.w3.org/2000/svg">
<path fill-rule="evenodd" clip-rule="evenodd" d="M46.469 0.413199C50.0893 1.15106 53.4401 2.8617 56.1611 5.36122C58.8821 7.86074 60.8704 11.0546 61.9122 14.5995C62.8774 17.8497 63.0211 21.2885 62.3297 24.6106C61.3304 29.1621 58.8156 33.2395 55.197 36.1755C51.5784 39.1115 47.0703 40.7322 42.4106 40.7722C40.4443 40.7722 38.4869 40.4894 36.6059 39.9192L33.0145 44.1302L31.313 44.9158H26.9359V51.6498L24.6913 53.8945H17.9573V60.6285L15.7126 62.8731H2.24466L0 60.6285V50.2716L0.655441 48.6869L22.9853 26.357C22.3516 24.3158 22.0485 22.1864 22.0875 20.0495C22.1284 17.0598 22.8283 14.1159 24.1374 11.4277C25.4465 8.73948 27.3325 6.37318 29.661 4.49745C31.9895 2.62172 34.7031 1.28276 37.6084 0.576018C40.5137 -0.130728 43.5391 -0.183365 46.469 0.413199ZM52.3859 32.7363C55.206 30.4526 57.1672 27.279 57.9482 23.7352L57.9661 23.7577C58.5223 21.1664 58.4222 18.4773 57.675 15.9346C56.9277 13.3919 55.5569 11.0762 53.6871 9.19795C51.8173 7.31971 49.5079 5.93845 46.9686 5.17967C44.4293 4.42089 41.7406 4.30865 39.1469 4.85314C35.6487 5.62956 32.5109 7.55399 30.233 10.32C27.955 13.0861 26.668 16.5347 26.5768 20.1168C26.5319 22.164 26.891 24.1931 27.6497 26.0876L27.1559 28.5253L4.48932 51.2009V58.3838H13.468V51.6498L15.7126 49.4052H22.4466V42.6712L24.6913 40.4265H30.2805L34.2131 35.8654L36.7316 35.2369C38.547 35.9463 40.4795 36.3087 42.4286 36.3053C46.0561 36.2775 49.5667 35.0192 52.3859 32.7363ZM48.6238 20.4715C48.9778 19.9824 49.2295 19.4269 49.3638 18.8383C49.4981 18.2496 49.5123 17.64 49.4055 17.0457C49.2988 16.4515 49.0733 15.8849 48.7425 15.3798C48.4117 14.8747 47.9824 14.4416 47.4803 14.1063C46.9782 13.7709 46.4137 13.5403 45.8204 13.4283C45.2271 13.3162 44.6174 13.3249 44.0276 13.4539C43.4378 13.5829 42.88 13.8296 42.3878 14.1792C41.8955 14.5287 41.4788 14.974 41.1626 15.4883C40.5543 16.4777 40.3532 17.6644 40.6014 18.7989C40.8496 19.9335 41.5278 20.9278 42.4936 21.5728C43.4594 22.2178 44.6377 22.4635 45.7808 22.2581C46.9239 22.0527 47.9429 21.4124 48.6238 20.4715Z" fill="#1f334b"/>
</svg>
