<svg xmlns="http://www.w3.org/2000/svg"  viewBox="0 0 48 48" width="80px" height="80px"><path fill="#90caf9" d="M6.001,6.002h31v31h-31V6.002z"/><path fill="#2196f3" d="M9.001,9.002h31v31h-31V9.002z"/><path fill="#90caf9" d="M12.001,12.002h31v31h-31V12.002z"/><path fill="#e57373" d="M47.681,44.861c0.426-0.43,0.426-1.129,0-1.555l-1.328-1.328l-4.375,4.375l1.328,1.324 c0.43,0.43,1.125,0.43,1.555,0L47.681,44.861"/><path fill="#ff9800" d="M39.786,44.162L21.474,25.85l4.375-4.375l18.316,18.313L39.786,44.162z"/><path fill="#b0bec5" d="M44.165,39.787l2.188,2.188l-4.379,4.375l-2.184-2.188L44.165,39.787z"/><path fill="#ffc107" d="M25.849,21.475l-5.848-1.473l1.473,5.848L25.849,21.475z"/><path fill="#37474f" d="M22.958,20.744l-2.957-0.742l0.742,2.957L22.958,20.744z"/></svg>