<svg xmlns="http://www.w3.org/2000/svg"  viewBox="0 0 100 100" width="80px" height="80px" baseProfile="basic"><path d="M94,67.4980011V23.5C94,17.7099991,89.2900009,13,83.5,13h-65C12.71,13,8,17.7099991,8,23.5v43.9980011 C5.651,68.4769974,4,70.7959976,4,73.5v5C4,84.2900009,8.71,89,14.5,89h73C93.2900009,89,98,84.2900009,98,78.5v-5 C98,70.7959976,96.348999,68.4779968,94,67.4980011z" opacity=".35"/><path fill="#F2F2F2" d="M92,65.4980011V21.5C92,15.71,87.2900009,11,81.5,11h-65C10.71,11,6,15.71,6,21.5v43.9980011 C3.651,66.4769974,2,68.7959976,2,71.5v5C2,82.2900009,6.71,87,12.5,87h73C91.2900009,87,96,82.2900009,96,76.5v-5 C96,68.7959976,94.348999,66.4779968,92,65.4980011z"/><path fill="#9FD4FF" d="M85.5,71.5v-50c0-2.2059994-1.7939987-4-4-4h-65c-2.2060003,0-4,1.7940006-4,4v50h-4c0,0,0,3.8949966,0,5 c0,2.2089996,1.7910004,4,4,4h73c2.2089996,0,4-1.7910004,4-4c0-1.1050034,0-5,0-5H85.5z"/><path fill="#707CC0" d="M89.5,73v3.5l0,0c0,2.2089996-1.7910004,4-4,4h-73c-2.2089996,0-4-1.7910004-4-4l0,0V73H89.5z"/><rect width="62" height="45" x="18" y="23" fill="#D9EEFF"/><path fill="#40396E" d="M53,76h-8c-1.6570015,0-3-1.3430023-3-3l0,0h14l0,0C56,74.6569977,54.6570015,76,53,76z"/><path fill="#40396E" d="M85.5,82h-73C9.4680004,82,7,79.5329971,7,76.5v-5C7,70.6709976,7.6719999,70,8.5,70H11V21.5 c0-3.0330009,2.4680004-5.5,5.5-5.5h65c3.0319977,0,5.5,2.4669991,5.5,5.5V70h2.5c0.8280029,0,1.5,0.6709976,1.5,1.5v5 C91,79.5329971,88.5319977,82,85.5,82z M10,73v3.5c0,1.3779984,1.1210003,2.5,2.5,2.5h73c1.3789978,0,2.5-1.1220016,2.5-2.5V73 h-2.5c-0.8280029,0-1.5-0.6709976-1.5-1.5v-50c0-1.3780003-1.1210022-2.5-2.5-2.5h-65c-1.3789997,0-2.5,1.1219997-2.5,2.5v50 c0,0.8290024-0.6719999,1.5-1.5,1.5H10z"/><path fill="#2B59A1" d="M41.9763947,51.7903633l-9.7632561-3.9809303 c-0.9126282-0.3719406-1.3693829-1.023056-1.3693829-1.9533539c0-0.8958397,0.4567547-1.5292931,1.3693829-1.9012337 l9.7632561-4.006546c0.4222984-0.1687431,0.7862892-0.1687431,1.0902061,0 c0.3047943,0.1687393,0.5159454,0.417881,0.6343269,0.7474174c0.1175079,0.3304176,0.1175079,0.6643677,0,1.0018539 c-0.1183815,0.3383713-0.3807716,0.5919304-0.7862854,0.7606697l-8.5458298,3.4234619l8.5458298,3.4490738 c0.4055138,0.1519547,0.6679039,0.3975601,0.7862854,0.7350502c0.1175079,0.3383713,0.1175079,0.6723175,0,1.0018578 c-0.1183815,0.3295364-0.3295326,0.5751381-0.6343269,0.7350464 C42.7626839,51.9635239,42.3986931,51.9599876,41.9763947,51.7903633z"/><path fill="#2B59A1" d="M47.5299034,53.8188171c-0.1519585,0.4735413-0.409935,0.786293-0.7739258,0.9382439 c-0.3631058,0.1528435-0.7306328,0.1731644-1.1025734,0.0636139c-0.3719406-0.1104317-0.6634903-0.326004-0.8746376-0.6467018 c-0.2111473-0.3215866-0.2323494-0.7350502-0.0636101-1.2421608l5.7310905-17.8779526 c0.1519547-0.4735451,0.4099274-0.7862892,0.773037-0.9382477c0.3639908-0.1519585,0.731514-0.177578,1.1034546-0.0759773 c0.3719444,0.1015968,0.6634903,0.3171654,0.8746376,0.6467018c0.2111511,0.3295326,0.232357,0.7394676,0.0636101,1.2297935 L47.5299034,53.8188171z"/><path fill="#2B59A1" d="M56.0244904,51.7903633c-0.4231834,0.1696243-0.786293,0.1731606-1.0902061,0.0123672 c-0.3047981-0.1599083-0.5159454-0.4055099-0.6343346-0.7350464c-0.1183815-0.3295403-0.1183815-0.6634865,0-1.0018578 c0.1183891-0.3374901,0.3798943-0.5830956,0.786293-0.7350502l8.545826-3.4490738l-8.545826-3.4234619 c-0.4063988-0.1687393-0.6679039-0.4222984-0.786293-0.7606697c-0.1183815-0.3374863-0.1183815-0.6714363,0-1.0018539 c0.1183891-0.3295364,0.3295364-0.5786781,0.6343346-0.7474174c0.3039131-0.1687431,0.6670227-0.1687431,1.0902061,0 l9.7632599,4.006546c0.9126205,0.3719406,1.3684921,1.005394,1.3684921,1.9012337 c0,0.9302979-0.4558716,1.5814133-1.3684921,1.9533539L56.0244904,51.7903633z"/></svg>